<?xml version="1.0" standalone="no"?>
<!DOCTYPE svg PUBLIC "-//W3C//DTD SVG 20010904//EN"
 "http://www.w3.org/TR/2001/REC-SVG-20010904/DTD/svg10.dtd">
<svg version="1.0" xmlns="http://www.w3.org/2000/svg"
 width="375.000000pt" height="131.000000pt" viewBox="0 0 375.000000 131.000000"
 preserveAspectRatio="xMidYMid meet">

<g transform="translate(0.000000,131.000000) scale(0.100000,-0.100000)"
fill="#000000" stroke="none">
<path d="M874 1165 c2 -11 25 -76 50 -144 25 -69 46 -126 46 -128 0 -1 -28
-21 -62 -44 -35 -23 -73 -51 -85 -62 -28 -25 -38 -18 -22 17 9 20 9 35 1 64
-33 110 -170 136 -241 46 -26 -34 -36 -86 -21 -114 16 -30 4 -37 -23 -13 -12
11 -50 39 -84 62 -65 43 -69 49 -54 79 19 36 90 236 86 241 -3 2 -6 2 -8 0 -2
-2 -57 -75 -121 -161 l-118 -157 33 -28 c61 -50 129 -127 176 -200 46 -72 47
-73 90 -73 l43 0 0 45 c0 39 3 45 24 51 14 3 34 3 44 -1 24 -7 39 12 23 28 -6
6 -11 35 -11 64 l0 53 35 0 35 0 0 -53 c0 -29 -6 -59 -12 -65 -17 -17 4 -31
38 -24 35 6 54 -14 54 -59 0 -39 0 -39 39 -39 36 0 41 4 66 48 39 67 89 128
161 197 l62 60 -101 136 c-142 189 -149 198 -143 174z"/>
<path d="M1376 750 c-62 -20 -96 -73 -96 -152 0 -62 25 -110 69 -133 35 -18
114 -20 177 -4 43 11 44 13 44 50 0 28 5 41 20 49 38 21 20 30 -60 30 -80 0
-98 -9 -60 -30 25 -13 28 -75 4 -84 -30 -11 -51 -6 -74 19 -20 21 -25 39 -28
94 -5 77 13 125 53 143 31 14 69 -9 92 -57 26 -53 43 -45 43 20 0 54 -1 55
-27 55 -16 0 -50 2 -78 4 -27 3 -63 1 -79 -4z"/>
<path d="M2226 750 c-62 -20 -96 -73 -96 -152 0 -62 25 -110 69 -133 35 -18
114 -20 177 -4 43 11 44 13 44 50 0 28 5 41 20 49 38 21 20 30 -60 30 -80 0
-98 -9 -60 -30 25 -13 28 -75 4 -84 -30 -11 -51 -6 -74 19 -20 21 -25 39 -28
94 -5 77 13 125 53 143 31 14 69 -9 92 -57 26 -53 43 -45 43 20 0 54 -1 55
-27 55 -16 0 -50 2 -78 4 -27 3 -63 1 -79 -4z"/>
<path d="M1770 740 c0 -6 11 -15 25 -20 26 -10 26 -10 23 -122 -3 -109 -4
-113 -25 -116 -13 -2 -23 -8 -23 -13 0 -5 38 -9 85 -9 80 0 111 11 65 23 -18
5 -20 14 -20 116 0 100 2 111 20 121 39 21 19 30 -65 30 -51 0 -85 -4 -85 -10z"/>
<path d="M2470 740 c0 -5 9 -14 20 -20 18 -9 20 -21 20 -100 0 -49 5 -101 12
-115 16 -36 57 -55 117 -55 106 0 131 32 131 164 0 80 2 87 25 102 40 26 30
34 -45 34 -72 0 -91 -13 -45 -30 24 -9 25 -12 25 -110 0 -112 -14 -140 -68
-140 -51 0 -66 29 -70 140 -4 92 -3 99 17 109 39 22 21 31 -59 31 -45 0 -80
-4 -80 -10z"/>
<path d="M2830 740 c0 -6 11 -15 25 -20 26 -10 26 -10 23 -122 -3 -109 -4
-113 -25 -116 -13 -2 -23 -8 -23 -13 0 -5 38 -9 85 -9 80 0 111 11 65 23 -18
5 -20 14 -20 116 0 100 2 111 20 121 39 21 19 30 -65 30 -51 0 -85 -4 -85 -10z"/>
<path d="M3030 743 c0 -6 11 -15 25 -21 26 -12 26 -13 23 -124 -3 -109 -4
-113 -25 -116 -13 -2 -23 -8 -23 -13 0 -5 50 -9 113 -9 124 0 164 12 201 62
26 36 27 112 2 154 -33 56 -68 68 -198 72 -70 3 -118 0 -118 -5z m185 -25 c38
-17 55 -58 55 -128 0 -52 -4 -65 -25 -86 -17 -17 -34 -24 -53 -22 l-27 3 -3
123 c-3 133 -2 135 53 110z"/>
<path d="M3400 742 c0 -5 11 -14 25 -20 26 -12 26 -13 23 -124 -3 -109 -4
-113 -25 -116 -13 -2 -23 -8 -23 -13 0 -5 62 -9 145 -9 l145 0 0 45 c0 25 -4
45 -9 45 -5 0 -21 -16 -36 -36 -24 -32 -31 -35 -68 -32 l-42 3 -3 58 c-3 51
-1 57 17 57 11 0 28 -11 39 -25 32 -40 42 -31 42 35 0 65 -17 81 -38 35 -8
-17 -20 -25 -37 -25 -24 0 -25 3 -25 55 l0 55 35 0 c25 0 44 -8 61 -25 34 -34
44 -31 44 10 l0 35 -135 0 c-74 0 -135 -4 -135 -8z"/>
<path d="M590 565 c0 -8 7 -15 15 -15 8 0 15 7 15 15 0 8 -7 15 -15 15 -8 0
-15 -7 -15 -15z"/>
<path d="M735 570 c-8 -13 4 -32 16 -25 12 8 12 35 0 35 -6 0 -13 -4 -16 -10z"/>
<path d="M1650 516 c-6 -8 -10 -25 -8 -38 2 -19 10 -24 40 -26 33 -3 38 0 44
23 4 15 1 31 -6 40 -16 19 -54 19 -70 1z"/>
<path d="M2000 516 c-6 -8 -10 -25 -8 -38 2 -19 10 -24 40 -26 33 -3 38 0 44
23 4 15 1 31 -6 40 -16 19 -54 19 -70 1z"/>
<path d="M403 314 c-111 -17 -282 -69 -303 -90 -13 -15 -13 -16 5 -10 46 13
168 36 194 36 19 0 34 -9 49 -30 30 -40 61 -59 119 -74 40 -10 59 -10 113 3
l65 16 3 53 c2 29 7 52 12 50 5 -2 19 -18 32 -37 54 -80 134 -107 237 -81 l66
16 3 46 3 46 42 -5 c23 -3 80 -13 127 -23 79 -17 101 -18 88 -5 -13 14 -150
57 -238 76 -128 28 -479 36 -617 13z m187 -78 c0 -55 -58 -83 -113 -55 -26 14
-77 60 -77 70 0 12 30 17 113 18 l77 1 0 -34z m340 -6 c0 -29 -5 -42 -19 -50
-46 -24 -117 2 -152 58 l-21 32 96 0 96 0 0 -40z"/>
</g>
</svg>
